<mxfile host="65bd71144e" scale="4" border="0">
    <diagram id="_XF6_Xsw8ZZClXzvhntR" name="Page-1">
        <mxGraphModel dx="489" dy="332" grid="1" gridSize="10" guides="1" tooltips="1" connect="1" arrows="1" fold="1" page="1" pageScale="1" pageWidth="583" pageHeight="827" math="0" shadow="0">
            <root>
                <mxCell id="0"/>
                <mxCell id="1" parent="0"/>
                <mxCell id="3" value="" style="whiteSpace=wrap;html=1;rounded=0;fontFamily=Courier New;" parent="1" vertex="1">
                    <mxGeometry x="260" y="80" width="300" height="20" as="geometry"/>
                </mxCell>
                <mxCell id="4" value="0" style="text;html=1;align=left;verticalAlign=middle;resizable=0;points=[];autosize=1;strokeColor=none;fillColor=none;fontFamily=Courier New;" vertex="1" parent="1">
                    <mxGeometry x="120" y="60" width="20" height="20" as="geometry"/>
                </mxCell>
                <mxCell id="5" value="i" style="text;html=1;align=left;verticalAlign=middle;resizable=0;points=[];autosize=1;strokeColor=none;fillColor=none;fontFamily=Courier New;" vertex="1" parent="1">
                    <mxGeometry x="260" y="60" width="20" height="20" as="geometry"/>
                </mxCell>
                <mxCell id="6" value="n" style="text;html=1;align=center;verticalAlign=middle;resizable=0;points=[];autosize=1;strokeColor=none;fillColor=none;fontFamily=Courier New;" vertex="1" parent="1">
                    <mxGeometry x="560" y="60" width="20" height="20" as="geometry"/>
                </mxCell>
                <mxCell id="10" value="&lt;font face=&quot;Helvetica&quot;&gt;non triés&lt;/font&gt;" style="text;html=1;align=center;verticalAlign=middle;resizable=0;points=[];autosize=1;strokeColor=none;fillColor=none;fontFamily=Courier New;" vertex="1" parent="1">
                    <mxGeometry x="380" y="80" width="60" height="20" as="geometry"/>
                </mxCell>
                <mxCell id="12" value="i" style="text;html=1;align=left;verticalAlign=middle;resizable=0;points=[];autosize=1;strokeColor=none;fillColor=none;fontFamily=Courier New;" vertex="1" parent="1">
                    <mxGeometry x="260" y="200" width="20" height="20" as="geometry"/>
                </mxCell>
                <mxCell id="13" value="n" style="text;html=1;align=center;verticalAlign=middle;resizable=0;points=[];autosize=1;strokeColor=none;fillColor=none;fontFamily=Courier New;" vertex="1" parent="1">
                    <mxGeometry x="560" y="200" width="20" height="20" as="geometry"/>
                </mxCell>
                <mxCell id="14" value="j" style="text;html=1;align=left;verticalAlign=middle;resizable=0;points=[];autosize=1;strokeColor=none;fillColor=none;fontFamily=Courier New;" vertex="1" parent="1">
                    <mxGeometry x="370" y="200" width="20" height="20" as="geometry"/>
                </mxCell>
                <mxCell id="15" value="" style="whiteSpace=wrap;html=1;rounded=0;fontFamily=Courier New;" vertex="1" parent="1">
                    <mxGeometry x="370" y="220" width="190" height="20" as="geometry"/>
                </mxCell>
                <mxCell id="11" value="" style="whiteSpace=wrap;html=1;rounded=0;fontFamily=Courier New;fillColor=#f8cecc;strokeColor=#000000;sketch=1;" vertex="1" parent="1">
                    <mxGeometry x="260" y="220" width="110" height="20" as="geometry"/>
                </mxCell>
                <mxCell id="18" value="" style="group;fillColor=#d5e8d4;strokeColor=#82b366;container=0;" vertex="1" connectable="0" parent="1">
                    <mxGeometry x="120" y="100" width="140" height="20" as="geometry"/>
                </mxCell>
                <mxCell id="2" value="" style="rounded=0;whiteSpace=wrap;html=1;fontFamily=Courier New;fillColor=#d5e8d4;strokeColor=#000000;sketch=1;shadow=0;glass=0;" parent="1" vertex="1">
                    <mxGeometry x="120" y="80" width="140" height="20" as="geometry"/>
                </mxCell>
                <mxCell id="19" value="&lt;font face=&quot;Helvetica&quot; style=&quot;font-size: 14px&quot;&gt;Tri sélection, à l'étape &lt;/font&gt;&lt;font style=&quot;font-size: 14px&quot;&gt;i&lt;/font&gt;" style="text;html=1;align=left;verticalAlign=middle;resizable=0;points=[];autosize=1;strokeColor=none;fillColor=none;fontSize=14;fontFamily=Courier New;fontStyle=1" vertex="1" parent="1">
                    <mxGeometry x="121" y="40" width="170" height="20" as="geometry"/>
                </mxCell>
                <mxCell id="23" style="edgeStyle=none;html=1;fontFamily=Helvetica;fontSize=10;" edge="1" parent="1" source="21">
                    <mxGeometry relative="1" as="geometry">
                        <mxPoint x="410" y="170" as="targetPoint"/>
                    </mxGeometry>
                </mxCell>
                <mxCell id="21" value="&lt;span style=&quot;font-size: 10px&quot;&gt;&lt;span style=&quot;font-style: normal&quot;&gt;étape &lt;font face=&quot;Courier New&quot;&gt;i&lt;/font&gt;&amp;nbsp;&lt;/span&gt;: sélectionner dans la partie non triée&lt;br&gt;l'indice de&amp;nbsp;la valeur minimale&lt;br&gt;&lt;/span&gt;" style="text;html=1;align=center;verticalAlign=middle;resizable=0;points=[];autosize=1;strokeColor=none;fillColor=none;fontSize=14;fontFamily=Helvetica;fontStyle=2" vertex="1" parent="1">
                    <mxGeometry x="300" y="100" width="220" height="40" as="geometry"/>
                </mxCell>
                <mxCell id="8" value="&lt;font face=&quot;Helvetica&quot; style=&quot;font-size: 9px&quot;&gt;et tous inférieurs aux &quot;non triés&quot;&lt;/font&gt;" style="text;html=1;align=center;verticalAlign=middle;resizable=0;points=[];autosize=1;strokeColor=none;fillColor=none;fontFamily=Helvetica;" vertex="1" parent="1">
                    <mxGeometry x="120" y="100" width="140" height="20" as="geometry"/>
                </mxCell>
                <mxCell id="24" value="&lt;font face=&quot;Helvetica&quot; style=&quot;font-size: 11px&quot;&gt;Chercher l'indice du min, à l'étape &lt;/font&gt;&lt;font style=&quot;font-size: 11px&quot;&gt;j&lt;/font&gt;" style="text;html=1;align=left;verticalAlign=middle;resizable=0;points=[];autosize=1;strokeColor=none;fillColor=none;fontSize=11;fontFamily=Courier New;fontStyle=1" vertex="1" parent="1">
                    <mxGeometry x="260" y="180" width="200" height="20" as="geometry"/>
                </mxCell>
                <mxCell id="25" value="&lt;span style=&quot;font-style: normal&quot;&gt;&lt;font face=&quot;Helvetica&quot; style=&quot;font-size: 10px&quot;&gt;étape &lt;/font&gt;&lt;font style=&quot;font-size: 10px&quot;&gt;j&lt;/font&gt;&lt;/span&gt;&lt;font face=&quot;Helvetica&quot; style=&quot;font-size: 10px&quot;&gt;&amp;nbsp;: si &lt;/font&gt;&lt;font style=&quot;font-size: 10px&quot;&gt;tab[j] &amp;lt;&amp;nbsp;tab[i_min]&lt;br style=&quot;font-size: 10px&quot;&gt;&lt;div style=&quot;font-size: 10px&quot;&gt;&lt;span style=&quot;font-size: 10px&quot;&gt;&lt;font face=&quot;Helvetica&quot;&gt;alors actualiser la valeur de &lt;/font&gt;i_min&lt;/span&gt;&lt;/div&gt;&lt;/font&gt;" style="text;html=1;align=center;verticalAlign=middle;resizable=0;points=[];autosize=1;strokeColor=none;fillColor=none;fontSize=10;fontFamily=Courier New;fontStyle=2" vertex="1" parent="1">
                    <mxGeometry x="375" y="250" width="180" height="30" as="geometry"/>
                </mxCell>
                <mxCell id="7" value="&lt;font face=&quot;Helvetica&quot;&gt;déjà triés&lt;/font&gt;" style="text;html=1;align=center;verticalAlign=middle;resizable=0;points=[];autosize=1;strokeColor=none;fillColor=none;fontFamily=Courier New;" vertex="1" parent="1">
                    <mxGeometry x="160" y="80" width="60" height="20" as="geometry"/>
                </mxCell>
                <mxCell id="31" value="" style="group;fillColor=#f8cecc;strokeColor=#b85450;" vertex="1" connectable="0" parent="1">
                    <mxGeometry x="260" y="240" width="110" height="50" as="geometry"/>
                </mxCell>
                <mxCell id="17" value="i_min&lt;font face=&quot;Helvetica&quot;&gt; est l'indice&lt;br&gt;la valeur minimale&lt;/font&gt;" style="text;html=1;align=center;verticalAlign=middle;resizable=0;points=[];autosize=1;fontFamily=Courier New;" vertex="1" parent="31">
                    <mxGeometry width="110" height="30" as="geometry"/>
                </mxCell>
                <mxCell id="30" value="&lt;font face=&quot;Helvetica&quot; style=&quot;font-size: 8px;&quot;&gt;initialisation&amp;nbsp;&amp;nbsp;:&amp;nbsp;&lt;/font&gt;&lt;span style=&quot;font-family: &amp;quot;courier new&amp;quot;; font-size: 8px;&quot;&gt;i_min ← i&lt;/span&gt;" style="text;html=1;align=center;verticalAlign=middle;resizable=0;points=[];autosize=1;fontSize=8;fontFamily=Courier New;" vertex="1" parent="31">
                    <mxGeometry y="30" width="110" height="20" as="geometry"/>
                </mxCell>
            </root>
        </mxGraphModel>
    </diagram>
</mxfile>